<svg width="1653" height="992" xmlns="http://www.w3.org/2000/svg" xmlns:xlink="http://www.w3.org/1999/xlink" overflow="hidden"><defs><clipPath id="clip0"><rect x="809" y="27" width="1653" height="992"/></clipPath><clipPath id="clip1"><rect x="809" y="27" width="1650" height="990"/></clipPath><clipPath id="clip2"><rect x="809" y="27" width="1650" height="990"/></clipPath><clipPath id="clip3"><rect x="919" y="77" width="1493" height="788"/></clipPath><clipPath id="clip4"><rect x="919" y="77" width="1493" height="788"/></clipPath><clipPath id="clip5"><rect x="809" y="27" width="1650" height="990"/></clipPath><clipPath id="clip6"><rect x="809" y="27" width="1650" height="990"/></clipPath><clipPath id="clip7"><rect x="809" y="27" width="1650" height="990"/></clipPath><clipPath id="clip8"><rect x="809" y="27" width="1650" height="990"/></clipPath><clipPath id="clip9"><rect x="809" y="27" width="1650" height="990"/></clipPath><clipPath id="clip10"><rect x="809" y="27" width="1650" height="990"/></clipPath><clipPath id="clip11"><rect x="809" y="27" width="1650" height="990"/></clipPath><clipPath id="clip12"><rect x="809" y="27" width="1650" height="990"/></clipPath><clipPath id="clip13"><rect x="809" y="27" width="1650" height="990"/></clipPath><clipPath id="clip14"><rect x="809" y="27" width="1650" height="990"/></clipPath><clipPath id="clip15"><rect x="809" y="27" width="1650" height="990"/></clipPath><clipPath id="clip16"><rect x="809" y="27" width="1650" height="990"/></clipPath><clipPath id="clip17"><rect x="809" y="27" width="1650" height="990"/></clipPath><clipPath id="clip18"><rect x="809" y="27" width="1650" height="990"/></clipPath><clipPath id="clip19"><rect x="809" y="27" width="1650" height="990"/></clipPath><clipPath id="clip20"><rect x="809" y="27" width="1650" height="990"/></clipPath><clipPath id="clip21"><rect x="809" y="27" width="1650" height="990"/></clipPath><clipPath id="clip22"><rect x="809" y="27" width="1650" height="990"/></clipPath><clipPath id="clip23"><rect x="809" y="27" width="1650" height="990"/></clipPath><clipPath id="clip24"><rect x="809" y="27" width="1650" height="990"/></clipPath><clipPath id="clip25"><rect x="809" y="27" width="1650" height="990"/></clipPath><clipPath id="clip26"><rect x="809" y="27" width="1650" height="990"/></clipPath></defs><g clip-path="url(#clip0)" transform="translate(-809 -27)"><rect x="810" y="27.9998" width="1650" height="989" fill="#FFFFFF"/><g clip-path="url(#clip1)"><path d="M919.5 862.5 2409.5 862.5M919.5 687.523 2409.5 687.523M919.5 600.52 2409.5 600.52M919.5 513.517 2409.5 513.517M919.5 426.514 2409.5 426.514M919.5 339.511 2409.5 339.511M919.5 252.508 2409.5 252.508M919.5 165.506 2409.5 165.506M919.5 77.4998 2409.5 77.4998" stroke="#D9D9D9" stroke-width="3.4375" stroke-linejoin="round" stroke-miterlimit="10" fill="none"/></g><g clip-path="url(#clip2)"><path d="M919.5 775.5 2409.5 775.5" stroke="#D9D9D9" stroke-width="3.4375" stroke-linejoin="round" stroke-miterlimit="10" fill="none" fill-rule="evenodd"/></g><g clip-path="url(#clip3)"><path d="M1012 644 1199.04 688.023 1385.05 819 1571.05 688.023 1757.06 731.024 1944.06 775.025 2130.07 688.023 2316 644" stroke="#4472C4" stroke-width="10.3125" stroke-linecap="round" stroke-linejoin="round" stroke-miterlimit="10" fill="none"/></g><g clip-path="url(#clip4)"><path d="M1012 209.007 1199.04 514 1385.05 514 1571.05 252.008 1757.06 426.014 1944.06 383.013 2130.07 296.01 2316 121" stroke="#ED7D31" stroke-width="10.3125" stroke-linecap="round" stroke-linejoin="round" stroke-miterlimit="10" fill="none"/></g><g clip-path="url(#clip5)"><text fill="#595959" font-family="Calibri,Calibri_MSFontService,sans-serif" font-weight="400" font-size="41" transform="matrix(1 0 0 1 847.595 874)">-2</text></g><g clip-path="url(#clip6)"><text fill="#595959" font-family="Calibri,Calibri_MSFontService,sans-serif" font-weight="400" font-size="41" transform="matrix(1 0 0 1 860.223 787)">0</text></g><g clip-path="url(#clip7)"><text fill="#595959" font-family="Calibri,Calibri_MSFontService,sans-serif" font-weight="400" font-size="41" transform="matrix(1 0 0 1 860.223 699)">2</text></g><g clip-path="url(#clip8)"><text fill="#595959" font-family="Calibri,Calibri_MSFontService,sans-serif" font-weight="400" font-size="41" transform="matrix(1 0 0 1 860.223 612)">4</text></g><g clip-path="url(#clip9)"><text fill="#595959" font-family="Calibri,Calibri_MSFontService,sans-serif" font-weight="400" font-size="41" transform="matrix(1 0 0 1 860.223 525)">6</text></g><g clip-path="url(#clip10)"><text fill="#595959" font-family="Calibri,Calibri_MSFontService,sans-serif" font-weight="400" font-size="41" transform="matrix(1 0 0 1 860.223 438)">8</text></g><g clip-path="url(#clip11)"><text fill="#595959" font-family="Calibri,Calibri_MSFontService,sans-serif" font-weight="400" font-size="41" transform="matrix(1 0 0 1 839.323 351)">10</text></g><g clip-path="url(#clip12)"><text fill="#595959" font-family="Calibri,Calibri_MSFontService,sans-serif" font-weight="400" font-size="41" transform="matrix(1 0 0 1 839.323 264)">12</text></g><g clip-path="url(#clip13)"><text fill="#595959" font-family="Calibri,Calibri_MSFontService,sans-serif" font-weight="400" font-size="41" transform="matrix(1 0 0 1 839.323 177)">14</text></g><g clip-path="url(#clip14)"><text fill="#595959" font-family="Calibri,Calibri_MSFontService,sans-serif" font-weight="400" font-size="41" transform="matrix(1 0 0 1 839.323 89)">16</text></g><g clip-path="url(#clip15)"><text fill="#595959" font-family="Calibri,Calibri_MSFontService,sans-serif" font-weight="400" font-size="41" transform="matrix(1 0 0 1 1002.05 840)">5</text></g><g clip-path="url(#clip16)"><text fill="#595959" font-family="Calibri,Calibri_MSFontService,sans-serif" font-weight="400" font-size="41" transform="matrix(1 0 0 1 1188.26 840)">6</text></g><g clip-path="url(#clip17)"><text fill="#595959" font-family="Calibri,Calibri_MSFontService,sans-serif" font-weight="400" font-size="41" transform="matrix(1 0 0 1 1374.48 840)">7</text></g><g clip-path="url(#clip18)"><text fill="#595959" font-family="Calibri,Calibri_MSFontService,sans-serif" font-weight="400" font-size="41" transform="matrix(1 0 0 1 1560.69 840)">8</text></g><g clip-path="url(#clip19)"><text fill="#595959" font-family="Calibri,Calibri_MSFontService,sans-serif" font-weight="400" font-size="41" transform="matrix(1 0 0 1 1746.91 840)">9</text></g><g clip-path="url(#clip20)"><text fill="#595959" font-family="Calibri,Calibri_MSFontService,sans-serif" font-weight="400" font-size="41" transform="matrix(1 0 0 1 1922.68 840)">10</text></g><g clip-path="url(#clip21)"><text fill="#595959" font-family="Calibri,Calibri_MSFontService,sans-serif" font-weight="400" font-size="41" transform="matrix(1 0 0 1 2108.89 840)">11</text></g><g clip-path="url(#clip22)"><text fill="#595959" font-family="Calibri,Calibri_MSFontService,sans-serif" font-weight="400" font-size="41" transform="matrix(1 0 0 1 2295.11 840)">12</text></g><g clip-path="url(#clip23)"><path d="M1444 951 1532 951.001" stroke="#4472C4" stroke-width="10.3125" stroke-linecap="round" stroke-linejoin="round" stroke-miterlimit="10" fill="none" fill-rule="evenodd"/></g><g clip-path="url(#clip24)"><text fill="#595959" font-family="Yu Gothic,Yu Gothic_MSFontService,sans-serif" font-weight="400" font-size="41" transform="matrix(1 0 0 1 1540.92 964)">最低</text></g><g clip-path="url(#clip25)"><path d="M1662 951 1750 951.001" stroke="#ED7D31" stroke-width="10.3125" stroke-linecap="round" stroke-linejoin="round" stroke-miterlimit="10" fill="none" fill-rule="evenodd"/></g><g clip-path="url(#clip26)"><text fill="#595959" font-family="Yu Gothic,Yu Gothic_MSFontService,sans-serif" font-weight="400" font-size="41" transform="matrix(1 0 0 1 1759.08 964)">最高</text></g><rect x="810.5" y="28.5" width="1650" height="989" stroke="#D9D9D9" stroke-width="3.4375" stroke-linejoin="round" stroke-miterlimit="10" fill="none"/></g></svg>